<?xml version="1.0" encoding="iso-8859-1"?>
<!-- Generator: Adobe Illustrator 19.0.0, SVG Export Plug-In . SVG Version: 6.00 Build 0)  -->
<svg version="1.1" id="Capa_1" xmlns="http://www.w3.org/2000/svg" xmlns:xlink="http://www.w3.org/1999/xlink" x="0px" y="0px"
	 viewBox="0 0 512 512" style="enable-background:new 0 0 512 512;" xml:space="preserve">
<polygon style="fill:#C7D5E0;" points="452.46,126.82 452.46,504.5 415.47,504.5 399.63,483.73 112.37,483.73 96.53,504.5 
	59.54,504.5 59.54,126.82 "/>
<g>
	<rect x="59.54" y="126.82" style="fill:#8DA7B7;" width="392.92" height="17.22"/>
	<path style="fill:#8DA7B7;" d="M78.104,453.592V113.821h355.791v339.771c0,6.62-5.367,11.987-11.987,11.987H90.092
		C83.471,465.579,78.104,460.212,78.104,453.592z"/>
</g>
<rect x="91.1" y="126.82" style="fill:#03B7ED;" width="329.8" height="325.76"/>
<polygon style="fill:#60DEFC;" points="407.9,139.82 407.9,385.33 353.67,439.58 158.33,439.58 104.1,385.33 104.1,139.82 "/>
<g>
	<polygon style="fill:#627E89;" points="420.9,390.72 420.9,452.58 359.05,452.58 	"/>
	<polygon style="fill:#627E89;" points="91.104,390.72 91.104,452.58 152.954,452.58 	"/>
</g>
<path style="fill:#8DA7B7;" d="M231.548,211.56l-4.78,14.83l-1.46,4.52l-11.31,35.15c-2.88,8.97-15.56,8.97-18.44,0l-11.31-35.15
	l-1.46-4.52l-4.78-14.83H231.548z"/>
<polygon style="fill:#627E89;" points="231.548,211.56 226.768,226.39 225.308,230.91 184.248,230.91 182.788,226.39 
	178.008,211.56 "/>
<rect x="159.18" y="176.33" style="fill:#FF318E;" width="91.19" height="41.574"/>
<rect x="147.61" y="155.33" style="fill:#8DA7B7;" width="114.33" height="40.827"/>
<rect x="91.1" y="126.82" style="fill:#627E89;" width="329.79" height="38.04"/>
<rect x="91.1" y="126.82" style="fill:#46626B;" width="329.79" height="17.219"/>
<rect x="40.35" y="96.17" style="fill:#C7D5E0;" width="431.3" height="34.88"/>
<rect x="40.35" y="96.17" style="fill:#8DA7B7;" width="431.3" height="19.94"/>
<rect x="19.821" y="7.5" style="fill:#C7D5E0;" width="472.36" height="95.61"/>
<rect x="19.821" y="7.5" style="fill:#E6F3FF;" width="472.36" height="13"/>
<rect x="178" y="42.694" style="fill:#FF318E;" width="155.99" height="60.36"/>
<path d="M492.179,0h-321.09c-4.143,0-7.5,3.358-7.5,7.5s3.357,7.5,7.5,7.5h313.59v80.612H341.495V42.694c0-4.142-3.357-7.5-7.5-7.5
	h-155.99c-4.143,0-7.5,3.358-7.5,7.5v52.917H27.321V15h109.59c4.143,0,7.5-3.358,7.5-7.5s-3.357-7.5-7.5-7.5H19.821
	c-4.143,0-7.5,3.358-7.5,7.5v95.612c0,4.142,3.357,7.5,7.5,7.5h13.031v20.433c0,4.142,3.357,7.5,7.5,7.5h11.689V504.5
	c0,4.142,3.357,7.5,7.5,7.5H96.53c2.34,0,4.545-1.092,5.964-2.952l13.589-17.818h279.832l13.589,17.818
	c1.419,1.86,3.624,2.952,5.964,2.952h36.989c4.143,0,7.5-3.358,7.5-7.5V231.089c0-4.142-3.357-7.5-7.5-7.5s-7.5,3.358-7.5,7.5V497
	h-25.776l-13.589-17.818c-1.419-1.86-3.624-2.952-5.964-2.952H112.371c-2.34,0-4.545,1.092-5.964,2.952L92.818,497H67.042V138.545
	h16.563v104.366c0,4.142,3.357,7.5,7.5,7.5s7.5-3.358,7.5-7.5v-70.554h41.508v23.803c0,4.142,3.357,7.5,7.5,7.5h4.072v14.245
	c0,4.142,3.357,7.5,7.5,7.5h0.527v4.05c0,4.142,3.357,7.5,7.5,7.5s7.5-3.358,7.5-7.5v-3.658l13.699,42.559
	c1.545,4.8,4.894,8.464,9.188,10.397v15.876c0,2.023-1.646,3.669-3.669,3.669h-44.435c-10.297,0-18.675,8.377-18.675,18.675
	c0,10.297,8.378,18.674,18.675,18.674H359.06c2.026,0,3.675,1.648,3.675,3.675s-1.648,3.675-3.675,3.675H149.495
	c-10.297,0-18.675,8.377-18.675,18.674s8.378,18.675,18.675,18.675H359.06c2.026,0,3.675,1.648,3.675,3.675
	s-1.648,3.675-3.675,3.675h-98.473c-9.77,0-17.717,7.947-17.717,17.716v8.898c0,4.142,3.357,7.5,7.5,7.5s7.5-3.358,7.5-7.5v-8.898
	c0-1.498,1.219-2.716,2.717-2.716h98.473c10.297,0,18.675-8.377,18.675-18.675s-8.378-18.675-18.675-18.675H149.495
	c-2.026,0-3.675-1.648-3.675-3.675c0-2.026,1.648-3.674,3.675-3.674H359.06c10.297,0,18.675-8.377,18.675-18.675
	s-8.378-18.675-18.675-18.675H149.495c-2.026,0-3.675-1.648-3.675-3.674s1.648-3.675,3.675-3.675h44.435
	c10.294,0,18.669-8.375,18.669-18.669v-16.171c3.986-2,7.078-5.542,8.546-10.102l13.699-42.56v3.659c0,4.142,3.357,7.5,7.5,7.5
	s7.5-3.358,7.5-7.5v-4.05h0.527c4.143,0,7.5-3.358,7.5-7.5V203.66h4.072c4.143,0,7.5-3.358,7.5-7.5v-3.66h10.875
	c11.814,0,21.615-8.771,23.242-20.143h15.849c2.097,11.442,12.135,20.143,24.174,20.143s22.077-8.701,24.175-20.143h45.638v215.261
	l-57.452,57.461H156.06l-57.455-57.465V277.089c0-4.142-3.357-7.5-7.5-7.5s-7.5,3.358-7.5,7.5v175.49c0,4.142,3.357,7.5,7.5,7.5
	h329.791c4.143,0,7.5-3.358,7.5-7.5V138.545h16.563v58.366c0,4.142,3.357,7.5,7.5,7.5s7.5-3.358,7.5-7.5v-58.366h11.689
	c4.143,0,7.5-3.358,7.5-7.5v-20.433h13.031c4.143,0,7.5-3.358,7.5-7.5V7.5C499.679,3.358,496.321,0,492.179,0z M185.505,50.194
	h140.99v45.36h-140.99V50.194L185.505,50.194z M254.443,172.357v16.303h-99.331v-16.303H254.443z M206.865,263.76
	c-0.324,1.01-1.027,1.521-2.088,1.521c-1.06,0-1.763-0.512-2.087-1.521l-12.346-38.355h28.867L206.865,263.76z M242.871,210.405
	h-76.187v-6.745h76.187V210.405z M280.318,177.5h-10.875v-5.143h18.671C286.814,175.379,283.811,177.5,280.318,177.5z
	 M343.583,177.5c-3.682,0-6.88-2.09-8.484-5.143h16.97C350.464,175.411,347.265,177.5,343.583,177.5z M98.604,408.828l36.244,36.251
	H98.604V408.828z M377.155,445.079l36.24-36.246v36.246H377.155z M413.396,157.357H98.604v-18.813h314.791v18.813H413.396z
	 M464.147,123.545H47.853v-12.933h416.295v12.933H464.147z"/>
<path d="M387.554,66.115v-0.781c0-4.142-3.357-7.5-7.5-7.5s-7.5,3.358-7.5,7.5v0.781c0,4.142,3.357,7.5,7.5,7.5
	S387.554,70.257,387.554,66.115z"/>
<path d="M409.167,66.115v-0.781c0-4.142-3.357-7.5-7.5-7.5s-7.5,3.358-7.5,7.5v0.781c0,4.142,3.357,7.5,7.5,7.5
	S409.167,70.257,409.167,66.115z"/>
<path d="M430.78,66.115v-0.781c0-4.142-3.357-7.5-7.5-7.5s-7.5,3.358-7.5,7.5v0.781c0,4.142,3.357,7.5,7.5,7.5
	S430.78,70.257,430.78,66.115z"/>
<path d="M131.333,48c-4.143,0-7.5,3.358-7.5,7.5v17.374c0,4.142,3.357,7.5,7.5,7.5c4.143,0,7.5-3.358,7.5-7.5V55.5
	C138.833,51.358,135.476,48,131.333,48z"/>
<path d="M99.833,55.5v17.374c0,4.142,3.357,7.5,7.5,7.5s7.5-3.358,7.5-7.5V55.5c0-4.142-3.357-7.5-7.5-7.5
	S99.833,51.358,99.833,55.5z"/>
<g>
</g>
<g>
</g>
<g>
</g>
<g>
</g>
<g>
</g>
<g>
</g>
<g>
</g>
<g>
</g>
<g>
</g>
<g>
</g>
<g>
</g>
<g>
</g>
<g>
</g>
<g>
</g>
<g>
</g>
</svg>
