<?xml version="1.0" encoding="iso-8859-1"?>
<!-- Generator: Adobe Illustrator 19.0.0, SVG Export Plug-In . SVG Version: 6.00 Build 0)  -->
<svg version="1.1" id="Capa_1" xmlns="http://www.w3.org/2000/svg" xmlns:xlink="http://www.w3.org/1999/xlink" x="0px" y="0px"
	 viewBox="0 0 512 512" style="enable-background:new 0 0 512 512;" xml:space="preserve">
<polygon style="fill:#808080;" points="409.796,512 256,102.038 102.204,512 256,202.493 "/>
<polygon style="opacity:0.2;enable-background:new    ;" points="102.204,512 256,153.968 409.796,512 256,202.493 "/>
<path style="fill:#808080;" d="M256,79.177c-4.619,0-8.364-3.745-8.364-8.364V8.364C247.636,3.745,251.381,0,256,0
	c4.62,0,8.364,3.745,8.364,8.364v62.449C264.364,75.432,260.62,79.177,256,79.177z"/>
<g>
	<path style="fill:#FFA638;" d="M256,166.16c-35.357,0-64.122-28.766-64.122-64.122S220.643,37.916,256,37.916
		s64.122,28.766,64.122,64.122S291.357,166.16,256,166.16z M256,54.643c-26.134,0-47.395,21.261-47.395,47.395
		s21.261,47.395,47.395,47.395c26.133,0,47.395-21.261,47.395-47.395S282.133,54.643,256,54.643z"/>
	<path style="fill:#FFA638;" d="M256,238.814c-36.534,0-70.882-14.227-96.716-40.061c-3.266-3.266-3.266-8.562,0-11.829
		c3.266-3.266,8.562-3.266,11.827,0c22.675,22.675,52.821,35.161,84.888,35.161s62.213-12.488,84.887-35.161
		c3.267-3.266,8.562-3.266,11.829,0c3.266,3.266,3.266,8.562,0,11.829C326.882,224.587,292.535,238.814,256,238.814z"/>
</g>
<g>
</g>
<g>
</g>
<g>
</g>
<g>
</g>
<g>
</g>
<g>
</g>
<g>
</g>
<g>
</g>
<g>
</g>
<g>
</g>
<g>
</g>
<g>
</g>
<g>
</g>
<g>
</g>
<g>
</g>
</svg>
