<?xml version="1.0" encoding="iso-8859-1"?>
<!-- Generator: Adobe Illustrator 19.0.0, SVG Export Plug-In . SVG Version: 6.00 Build 0)  -->
<svg version="1.1" id="Capa_1" xmlns="http://www.w3.org/2000/svg" xmlns:xlink="http://www.w3.org/1999/xlink" x="0px" y="0px"
	 viewBox="0 0 512 512" style="enable-background:new 0 0 512 512;" xml:space="preserve">
<g>
	<path style="fill:#FF73AF;" d="M327.28,460.98v0.92c0,5.96-4.83,10.79-10.79,10.79H195.52c-5.96,0-10.8-4.83-10.8-10.79v-0.92
		c0-4.21,2.48-7.97,6.28-9.8c14.87-7.18,23.49-20.99,28.47-34.16c6.28-16.6,6.78-32.19,6.78-32.19h59.5c0,0,0.51,15.59,6.79,32.19
		c4.98,13.17,13.59,26.98,28.47,34.16C324.8,453.01,327.28,456.771,327.28,460.98z"/>
	<path style="fill:#FF73AF;" d="M292.54,417.021h-73.07c6.28-16.6,6.78-32.19,6.78-32.19h59.5
		C285.75,384.831,286.26,400.42,292.54,417.021z"/>
	<path style="fill:#FF73AF;" d="M327.28,460.98v0.92c0,5.96-4.83,10.79-10.79,10.79H195.52c-5.96,0-10.8-4.83-10.8-10.79v-0.92
		c0-4.21,2.48-7.97,6.28-9.8c14.87-7.18,23.49-20.99,28.47-34.16c6.28-16.6,6.78-32.19,6.78-32.19h59.5c0,0,0.51,15.59,6.79,32.19
		c4.98,13.17,13.59,26.98,28.47,34.16C324.8,453.01,327.28,456.771,327.28,460.98z"/>
	<path style="fill:#FF73AF;" d="M504.5,343.729v35.214c0,13.845-11.233,25.078-25.078,25.078H32.578
		c-13.856,0-25.078-11.233-25.078-25.078v-35.214H504.5z"/>
	<path style="fill:#FF73AF;" d="M504.5,56.18v322.76c0,13.85-11.23,25.08-25.08,25.08H32.58c-13.86,0-25.08-11.23-25.08-25.08V56.18
		c0-9.32,7.55-16.87,16.88-16.87h463.24C496.95,39.311,504.5,46.86,504.5,56.18z"/>
</g>
<path style="fill:#E6F3FF;" d="M327.28,460.98v0.92c0,5.96-4.83,10.79-10.79,10.79H195.52c-5.96,0-10.8-4.83-10.8-10.79v-0.92
	c0-4.21,2.48-7.97,6.28-9.8c14.87-7.18,23.49-20.99,28.47-34.16c6.28-16.6,6.78-32.19,6.78-32.19h59.5c0,0,0.51,15.59,6.79,32.19
	c4.98,13.17,13.59,26.98,28.47,34.16C324.8,453.01,327.28,456.771,327.28,460.98z"/>
<path style="fill:#C7D5E0;" d="M292.54,417.021h-73.07c6.28-16.6,6.78-32.19,6.78-32.19h59.5
	C285.75,384.831,286.26,400.42,292.54,417.021z"/>
<path style="fill:#FF318E;" d="M504.5,330.73v48.21c0,13.85-11.23,25.08-25.08,25.08H32.58c-13.86,0-25.08-11.23-25.08-25.08v-48.21
	H504.5z"/>
<path style="fill:#E6F3FF;" d="M504.5,343.729v35.214c0,13.845-11.233,25.078-25.078,25.078H32.578
	c-13.856,0-25.078-11.233-25.078-25.078v-35.214H504.5z"/>
<g>
	<path style="fill:#47DDD9;" d="M297.01,135.506l-7.32,22.73l-19.56,60.76c-4.42,13.73-23.84,13.73-28.26,0l-19.56-60.76
		l-7.32-22.73H297.01z"/>
	<path style="fill:#47DDD9;" d="M256,216.293c-1.343,0-1.611-0.833-1.755-1.28l-21.411-66.507h46.332l-21.411,66.507
		C257.611,215.46,257.343,216.293,256,216.293z"/>
</g>
<polygon style="fill:#08B2A5;" points="297.01,135.506 289.69,158.236 222.31,158.236 214.99,135.506 "/>
<g>
	<path style="fill:#627E89;" d="M356.104,91.511h-15.563V57.862h15.563c3.066,0,5.551,2.485,5.551,5.551v22.545
		C361.656,89.025,359.17,91.511,356.104,91.511z"/>
	<path style="fill:#627E89;" d="M171.458,91.511h-15.563c-3.066,0-5.551-2.485-5.551-5.551V63.414c0-3.066,2.485-5.551,5.551-5.551
		h15.563V91.511z"/>
</g>
<rect x="186.16" y="72.62" style="fill:#E6F3FF;" width="139.68" height="72.62"/>
<rect x="186.16" y="72.62" style="fill:#C7D5E0;" width="139.68" height="52.31"/>
<rect x="168.44" y="39.31" style="fill:#8DA7B7;" width="175.12" height="72.61"/>
<rect x="168.44" y="39.31" style="fill:#C7D5E0;" width="175.12" height="13"/>
<g>
	<circle style="fill:#47DDD9;" cx="385.46" cy="272.46" r="31.457"/>
	<path style="fill:#47DDD9;" d="M385.457,290.915c-10.178,0-18.457-8.279-18.457-18.457S375.279,254,385.457,254
		s18.457,8.279,18.457,18.457S395.635,290.915,385.457,290.915z"/>
</g>
<path d="M487.625,31.809h-46.536c-4.143,0-7.5,3.357-7.5,7.5s3.357,7.5,7.5,7.5h46.536c5.169,0,9.375,4.206,9.375,9.376v280.044H15
	v-189.14c0-4.143-3.357-7.5-7.5-7.5s-7.5,3.357-7.5,7.5v231.854c0,17.964,14.614,32.579,32.578,32.579h180.875
	c-0.326,0.959-0.649,1.922-0.999,2.847c-5.563,14.713-13.878,24.826-24.708,30.056c-6.493,3.127-10.526,9.471-10.526,16.557v0.921
	c0,10.085,8.209,18.289,18.3,18.289h120.97c10.085,0,18.29-8.204,18.29-18.289v-0.921c0-7.08-4.027-13.424-10.512-16.555
	c-10.834-5.228-19.148-15.341-24.714-30.06c-0.352-0.93-0.69-1.881-1.018-2.845h77.375c4.143,0,7.5-3.357,7.5-7.5
	s-3.357-7.5-7.5-7.5H32.578c-9.692,0-17.578-7.886-17.578-17.579v-27.714h482v27.714c0,9.693-7.886,17.579-17.578,17.579h-69.333
	c-4.143,0-7.5,3.357-7.5,7.5s3.357,7.5,7.5,7.5h69.333c17.964,0,32.578-14.615,32.578-32.579V56.185
	C512,42.744,501.065,31.809,487.625,31.809z M285.524,419.673c6.971,18.435,17.813,31.308,32.225,38.262
	c1.253,0.605,2.031,1.772,2.031,3.046v0.921c0,1.813-1.476,3.289-3.29,3.289H195.52c-1.819,0-3.3-1.476-3.3-3.289v-0.921
	c0-1.272,0.779-2.438,2.041-3.046c14.415-6.96,25.257-19.833,32.224-38.26c0.989-2.614,1.892-5.353,2.704-8.153h53.639
	C283.641,414.328,284.536,417.062,285.524,419.673z"/>
<path d="M7.5,120.412c4.143,0,7.5-3.357,7.5-7.5V56.185c0-5.17,4.206-9.376,9.376-9.376h136.563v3.554h-5.043
	c-7.196,0-13.051,5.854-13.051,13.051V85.96c0,7.196,5.854,13.051,13.051,13.051h5.043v12.915c0,4.143,3.357,7.5,7.5,7.5h10.224
	v25.808c0,4.143,3.357,7.5,7.5,7.5h4.797v10.192c0,4.143,3.357,7.5,7.5,7.5s7.5-3.357,7.5-7.5v-10.192h6.7l10.972,34.085H78.333
	c-4.143,0-7.5,3.357-7.5,7.5s3.357,7.5,7.5,7.5h150.126l6.268,19.472c3.031,9.416,11.382,15.5,21.273,15.5
	c9.891,0,18.242-6.084,21.273-15.5l22.068-68.557h6.7v10.192c0,4.143,3.357,7.5,7.5,7.5s7.5-3.357,7.5-7.5v-10.192h4.796
	c4.143,0,7.5-3.357,7.5-7.5V136h83.074c4.143,0,7.5-3.357,7.5-7.5c0-4.143-3.357-7.5-7.5-7.5h-83.074v-1.575h10.225
	c4.143,0,7.5-3.357,7.5-7.5V99.01h5.043c7.196,0,13.051-5.854,13.051-13.051V63.414c0-7.196-5.854-13.051-13.051-13.051h-5.043
	v-3.554h55.85c4.143,0,7.5-3.357,7.5-7.5s-3.357-7.5-7.5-7.5H24.376C10.935,31.809,0,42.744,0,56.185v56.727
	C0,117.054,3.357,120.412,7.5,120.412z M157.845,84.01V65.363h3.094V84.01H157.845z M262.994,216.694
	c-1.521,4.729-5.738,5.096-6.994,5.096s-5.473-0.367-6.994-5.096l-4.788-14.876h5.785c4.143,0,7.5-3.357,7.5-7.5s-3.357-7.5-7.5-7.5
	h-10.614l-10.972-34.085h55.165L262.994,216.694z M318.337,121h-5.056c-4.143,0-7.5,3.357-7.5,7.5s3.357,7.5,7.5,7.5h5.056v1.732
	H193.662v-18.308h124.675V121z M336.062,104.425H175.938V46.81h160.123v57.615H336.062z M354.155,65.363V84.01h-3.094V65.363
	H354.155z"/>
<path d="M315.008,70.548c4.143,0,7.5-3.357,7.5-7.5v-0.739c0-4.143-3.357-7.5-7.5-7.5s-7.5,3.357-7.5,7.5v0.739
	C307.508,67.191,310.865,70.548,315.008,70.548z"/>
<path d="M315.008,88.752c4.143,0,7.5-3.357,7.5-7.5v-0.74c0-4.143-3.357-7.5-7.5-7.5s-7.5,3.357-7.5,7.5v0.74
	C307.508,85.395,310.865,88.752,315.008,88.752z"/>
<path d="M78.333,229.166h20.008c4.143,0,7.5-3.357,7.5-7.5s-3.357-7.5-7.5-7.5H78.333c-4.143,0-7.5,3.357-7.5,7.5
	S74.19,229.166,78.333,229.166z"/>
<path d="M160.767,241c0-4.143-3.357-7.5-7.5-7.5H78.333c-4.143,0-7.5,3.357-7.5,7.5s3.357,7.5,7.5,7.5h74.934
	C157.409,248.5,160.767,245.143,160.767,241z"/>
<path d="M146.5,260.335c0-4.143-3.357-7.5-7.5-7.5H78.333c-4.143,0-7.5,3.357-7.5,7.5s3.357,7.5,7.5,7.5H139
	C143.143,267.835,146.5,264.478,146.5,260.335z"/>
<path d="M70.833,287.594v0.739c0,4.143,3.357,7.5,7.5,7.5s7.5-3.357,7.5-7.5v-0.739c0-4.143-3.357-7.5-7.5-7.5
	S70.833,283.452,70.833,287.594z"/>
<path d="M416.411,195.76c-4.143,0-7.5,3.357-7.5,7.5V204c0,4.143,3.357,7.5,7.5,7.5s7.5-3.357,7.5-7.5v-0.74
	C423.911,199.118,420.554,195.76,416.411,195.76z"/>
<path d="M375,164.167h41.411c4.143,0,7.5-3.357,7.5-7.5s-3.357-7.5-7.5-7.5H375c-4.143,0-7.5,3.357-7.5,7.5
	S370.857,164.167,375,164.167z"/>
<path d="M375,184.212h41.411c4.143,0,7.5-3.357,7.5-7.5s-3.357-7.5-7.5-7.5H375c-4.143,0-7.5,3.357-7.5,7.5
	S370.857,184.212,375,184.212z"/>
<path d="M346.5,272.458c0,21.481,17.476,38.957,38.957,38.957s38.957-17.476,38.957-38.957S406.938,233.5,385.457,233.5
	S346.5,250.976,346.5,272.458z M385.457,248.5c13.21,0,23.957,10.747,23.957,23.957s-10.747,23.957-23.957,23.957
	S361.5,285.667,361.5,272.458S372.247,248.5,385.457,248.5z"/>
<path d="M325.84,269.334c4.143,0,7.5-3.357,7.5-7.5s-3.357-7.5-7.5-7.5h-17.507c-4.143,0-7.5,3.357-7.5,7.5s3.357,7.5,7.5,7.5
	H325.84z"/>
<path d="M264.5,281.747c0,4.143,3.357,7.5,7.5,7.5h55.28c4.143,0,7.5-3.357,7.5-7.5s-3.357-7.5-7.5-7.5H272
	C267.857,274.247,264.5,277.605,264.5,281.747z"/>
<g>
</g>
<g>
</g>
<g>
</g>
<g>
</g>
<g>
</g>
<g>
</g>
<g>
</g>
<g>
</g>
<g>
</g>
<g>
</g>
<g>
</g>
<g>
</g>
<g>
</g>
<g>
</g>
<g>
</g>
</svg>
